# xmcd
#
# Track frame offsets: 
#        150
#        10773
#        22371
#        35094
#        48042
#        59490
#        80763
#        92886
#        104334
#        115782
#        126105
#        138378
#        152301
#        165774
#        176997
#        187320
#        201093
#        212991
#        222789
#        233862
#        242160
#        253533
#        265356
#        275529
#        286827
#
# Disc length: 3957 seconds
#
# Revision: 0
# Processed by: cddbd v1.5.2PL0 Copyright (c) Steve Scherf et al.
# Submitted via: ExactAudioCopy v0.99pb5
#
DISCID=720f7319
DTITLE=Various Artist - He'll have to go - 25 Country Classics
DYEAR=2010
DGENRE=Country
TTITLE0=Jim Reeves - He'll Have to Go
TTITLE1=Johnny Horton - The Battle of New Orleans
TTITLE2=George Jones - White Lightning
TTITLE3=The Browns - The Three Bells
TTITLE4=Don Gibson - Oh Lonesome Me
TTITLE5=Marty Robbins - El Paso
TTITLE6=Kitty Wells - Amigo's Guitar
TTITLE7=Lester Flatt and Earl Scruggs - Cabin On The Hill
TTITLE8=Billy Crammer - Gotta' Travel On
TTITLE9=Skeeter Davis - Set Him Free
TTITLE10=Buck Owens - Under Your Spell Again
TTITLE11=Johnny Cash - Don't Take Your Guns To Town
TTITLE12=Ray Price - Heartaches By The Number
TTITLE13=Stonewall Jackson - Waterloo
TTITLE14=Don Gibson - Don't Tell Me Your Troubles
TTITLE15=Lefty Frizzell - The Long Black Veil
TTITLE16=Elvis Presley - Now and Then There's a Fool Such as I
TTITLE17=Marty Robbins - Just Married
TTITLE18=Charlie Walker - Pick Me Up On Your Way Down
TTITLE19=Johnny Cash - Guess Things Happen That Way
TTITLE20=Kitty Wells - She's No Angel
TTITLE21=Don Gibson - I Can't Stop Loving You
TTITLE22=Jim Reeves - Blue Boy
TTITLE23=Hank Locklin - Send Me The Pillow You Dream On
TTITLE24=Don Gibson - Who Cares
EXTD=
EXTT0=
EXTT1=
EXTT2=
EXTT3=
EXTT4=
EXTT5=
EXTT6=
EXTT7=
EXTT8=
EXTT9=
EXTT10=
EXTT11=
EXTT12=
EXTT13=
EXTT14=
EXTT15=
EXTT16=
EXTT17=
EXTT18=
EXTT19=
EXTT20=
EXTT21=
EXTT22=
EXTT23=
EXTT24=
PLAYORDER=
